<svg xmlns="http://www.w3.org/2000/svg" width="65.649" height="86.892" viewBox="0 0 65.649 86.892"><g transform="translate(-147.54 -111.445)"><g transform="translate(147.54 162.719)"><path d="M198.988,285.357a27.077,27.077,0,0,0-13.02-3.312H174.761a27.215,27.215,0,0,0-27.221,27.221v8.4h65.649v-8.4A27.211,27.211,0,0,0,198.988,285.357Z" transform="translate(-147.54 -282.045)"/></g><g transform="translate(159.279 111.445)"><g transform="translate(0)"><path d="M207.687,111.445c-11.628,0-21.087,9.993-21.087,22.28a22.423,22.423,0,0,0,12.073,20.137,20.053,20.053,0,0,0,18.027,0,22.423,22.423,0,0,0,12.073-20.137C228.773,121.438,219.315,111.445,207.687,111.445Z" fill="currentColor" transform="translate(-186.6 -111.445)"/></g></g></g></svg>