<svg xmlns="http://www.w3.org/2000/svg" width="121.968" height="86.892" viewBox="0 0 121.968 86.892"><g transform="translate(-634.321 -142.218)"><g transform="translate(486.781 30.773)"><g transform="translate(147.54 162.719)"><path d="M198.988,285.357a27.077,27.077,0,0,0-13.02-3.312H174.761a27.215,27.215,0,0,0-27.221,27.221v8.4h65.649v-8.4A27.211,27.211,0,0,0,198.988,285.357Z" fill="white" transform="translate(-147.54 -282.045)"/></g><g transform="translate(159.279 111.445)"><g transform="translate(0)"><path d="M207.687,111.445c-11.628,0-21.087,9.993-21.087,22.28a22.423,22.423,0,0,0,12.073,20.137,20.053,20.053,0,0,0,18.027,0,22.423,22.423,0,0,0,12.073-20.137C228.773,121.438,219.315,111.445,207.687,111.445Z" fill="white" transform="translate(-186.6 -111.445)"/></g></g></g><g transform="translate(709.321 166.944)"><g transform="translate(0 36.683)"><path d="M184.348,284.415a19.372,19.372,0,0,0-9.315-2.37h-8.018A19.471,19.471,0,0,0,147.54,301.52v6.008h46.968V301.52A19.468,19.468,0,0,0,184.348,284.415Z" fill="white" transform="translate(-147.54 -282.045)"/></g><g transform="translate(8.399 0)"><g transform="translate(0)"><path d="M201.686,111.445c-8.319,0-15.086,7.15-15.086,15.94a16.042,16.042,0,0,0,8.638,14.407,14.346,14.346,0,0,0,12.9,0,16.042,16.042,0,0,0,8.638-14.407C216.772,118.595,210.006,111.445,201.686,111.445Z" fill="white" transform="translate(-186.6 -111.445)"/></g></g></g></g></svg>